:SAMPLES-PER-SECOND 30
:FULLY-SPECIFIED
:DEGREES
2168
root  7.25882 40.8184 -5.99031 -31.4459 -82.3932 30.6496
RightUpLeg  -7.01267 -11.472 -8.46504
RightLeg  7.40202 -5.59666 4.5858
RightFoot  1.56657 0.225652 -1.7961
RightToes  -4.65663e-010 0 -3.6325e-017
Spine  4.17036 -0.770677 8.47756
Spine1  9.97791 0.296978 -2.95719
HEad  41.5598 -2.7549 -2.94896
LeftShoulder1  7.15394 -9.93271 -46.4227
LeftArm  -10.4187 28.1268 -27.1555
LeftForeArm  23.1099 -22.1755 -3.66591
LeftHand  -0.244104 0.0205437 5.32207
RightShoulder  5.16446 8.21682 38.0172
RightArm  -3.18503 -13.2282 27.1041
RightForeArm  -0.758893 32.8675 7.32395
RightHand  -0.84088 0.238692 -17.3531
LeftUpLeg  -9.56402 12.959 4.13688
LeftLeg  20.8127 1.55278 1.03889
LeftFoot  -4.88467 0.499423 -8.32177
LeftToes  4.18335e-011 1.59304e-011 3.38507e-012
2169
root  6.99426 40.8666 -6.1152 -32.3575 -82.5535 31.845
RightUpLeg  -6.81283 -11.2983 -8.25437
RightLeg  7.09949 -5.6248 4.61898
RightFoot  1.47985 0.242798 -2.02984
RightToes  -4.65663e-010 0 -3.6325e-017
Spine  3.99472 -0.627258 8.40058
Spine1  10.0154 0.397235 -2.99278
HEad  41.2647 -2.67421 -2.9878
LeftShoulder1  7.19069 -9.98621 -46.4782
LeftArm  -10.7691 28.0891 -27.0064
LeftForeArm  23.1548 -22.7379 -3.71297
LeftHand  -0.244104 0.0205437 5.32207
RightShoulder  5.17939 8.25835 37.9897
RightArm  -3.65203 -12.7987 27.1805
RightForeArm  -0.505091 34.248 7.687
RightHand  -0.856198 0.292727 -17.5019
LeftUpLeg  -9.07487 14.1505 4.05997
LeftLeg  15.2879 0.155838 0.0515477
LeftFoot  -4.04217 0.589814 -8.86225
LeftToes  4.18335e-011 1.59304e-011 3.38507e-012
2170
root  6.75458 40.9089 -6.19956 -32.1951 -82.8674 31.8037
RightUpLeg  -6.37433 -11.0148 -7.89624
RightLeg  6.59957 -5.71796 4.65782
RightFoot  1.35491 0.255143 -2.21171
RightToes  -4.65663e-010 0 -3.6325e-017
Spine  3.96669 -0.55343 8.31733
Spine1  9.88963 0.408363 -2.91826
HEad  41.1127 -2.44609 -2.93575
LeftShoulder1  7.19643 -10.0091 -46.4355
LeftArm  -11.0939 28.0615 -26.8813
LeftForeArm  23.221 -23.3639 -3.79517
LeftHand  -0.244104 0.0205437 5.32207
RightShoulder  5.17791 8.28125 37.8953
RightArm  -3.61135 -12.3802 27.4454
RightForeArm  -0.194186 34.8773 7.84648
RightHand  -0.846076 0.224497 -17.5009
LeftUpLeg  -8.23152 11.876 4.935
LeftLeg  10.3826 2.10339 -1.36009
LeftFoot  -2.83108 0.671759 -8.7957
LeftToes  4.18335e-011 1.59304e-011 3.38507e-012
2171
root  6.5205 40.9374 -6.23323 -30.9979 -83.1671 30.5256
RightUpLeg  -5.70698 -10.7544 -7.55424
RightLeg  6.14073 -5.75225 4.69471
RightFoot  1.17366 0.252145 -2.22475
RightToes  -4.65663e-010 0 -3.6325e-017
Spine  3.9318 -0.593577 8.15022
Spine1  9.80488 0.27915 -2.70064
HEad  41.0489 -2.08088 -2.73417
LeftShoulder1  7.18485 -10.0103 -46.357
LeftArm  -11.1915 27.9785 -26.6259
LeftForeArm  23.6381 -24.0505 -3.90096
LeftHand  -0.244104 0.0205437 5.32207
RightShoulder  5.18596 8.29518 37.911
RightArm  -3.34628 -12.1398 27.7863
RightForeArm  0.0625231 35.0094 7.86945
RightHand  -0.834001 0.165179 -17.4333
LeftUpLeg  -7.18531 8.63438 6.04896
LeftLeg  6.32993 5.23464 -2.72103
LeftFoot  -1.21239 0.800774 -8.92886
LeftToes  4.18335e-011 1.59304e-011 3.38507e-012
2172
root  6.27367 40.927 -6.21782 -28.5776 -83.4663 27.8499
RightUpLeg  -5.06913 -10.559 -7.18891
RightLeg  6.18256 -5.7567 4.68764
RightFoot  0.814506 0.239401 -2.19477
RightToes  -4.65663e-010 0 -3.6325e-017
Spine  3.65515 -0.687845 8.02666
Spine1  10.1101 0.0672022 -2.31837
HEad  40.7379 -1.76129 -2.52913
LeftShoulder1  7.17005 -10.0138 -46.2553
LeftArm  -11.2297 27.7192 -26.2679
LeftForeArm  24.193 -24.6951 -4.0092
LeftHand  -0.244104 0.0205437 5.32207
RightShoulder  5.21939 8.31856 38.0995
RightArm  -3.13541 -12.1844 28.127
RightForeArm  0.286676 34.9043 7.82679
RightHand  -0.834702 0.187209 -17.3811
LeftUpLeg  -5.98702 7.20643 6.90092
LeftLeg  3.26317 6.91702 -3.60712
LeftFoot  0.591544 1.01205 -9.69441
LeftToes  4.18335e-011 1.59304e-011 3.38507e-012
2173
root  6.01748 40.8804 -6.15163 -23.9641 -84.0296 22.8763
RightUpLeg  -4.45005 -10.2784 -6.5676
RightLeg  6.44105 -5.80954 4.68777
RightFoot  0.314366 0.230452 -2.2354
RightToes  -4.65663e-010 0 -3.6325e-017
Spine  3.17122 -0.73879 8.37557
Spine1  10.7114 -0.0564604 -2.06199
HEad  39.9965 -1.55342 -2.49476
LeftShoulder1  7.1543 -10.0141 -46.1383
LeftArm  -11.4814 27.401 -25.9597
LeftForeArm  24.6973 -25.4178 -4.1367
LeftHand  -0.244104 0.0205437 5.32207
RightShoulder  5.26508 8.36246 38.3126
RightArm  -2.84952 -12.5761 28.4223
RightForeArm  0.250623 34.6342 7.75267
RightHand  -0.841675 0.246656 -17.3453
LeftUpLeg  -4.71326 6.98489 7.69727
LeftLeg  1.21802 7.58313 -4.0669
LeftFoot  2.32544 1.16949 -9.87337
LeftToes  4.18335e-011 1.59304e-011 3.38507e-012
2174
root  5.77139 40.8428 -6.03441 -16.4932 -84.9152 14.9846
RightUpLeg  -3.54123 -9.82455 -5.71767
RightLeg  6.12254 -5.79554 4.78891
RightFoot  0.0515057 0.228428 -2.28534
RightToes  -4.65663e-010 0 -3.6325e-017
Spine  2.74127 -0.736775 9.18292
Spine1  11.1872 -0.0499231 -2.12048
HEad  38.9926 -1.27629 -2.65114
LeftShoulder1  7.15079 -10.0035 -46.1528
LeftArm  -11.8839 27.2141 -25.7096
LeftForeArm  25.1094 -26.3725 -4.321
LeftHand  -0.244104 0.0205437 5.32207
RightShoulder  5.31855 8.43383 38.4879
RightArm  -2.14174 -13.2179 28.5506
RightForeArm  -0.0689864 34.0659 7.6124
RightHand  -0.850927 0.31947 -17.3169
LeftUpLeg  -3.54043 7.08902 8.36946
LeftLeg  0.0887188 7.84051 -4.02794
LeftFoot  3.86135 1.06905 -8.19281
LeftToes  4.18335e-011 1.59304e-011 3.38507e-012
2175
root  5.54321 40.8513 -5.88836 -8.25195 -85.7718 6.28876
RightUpLeg  -2.30756 -9.35212 -5.04837
RightLeg  5.15105 -5.565 4.9179
RightFoot  0.209686 0.230495 -2.25764
RightToes  -4.65663e-010 0 -3.6325e-017
Spine  2.435 -0.727309 9.63957
Spine1  11.4258 -0.074721 -2.12289
HEad  37.8384 -0.875142 -2.88437
LeftShoulder1  7.16621 -9.96863 -46.3776
LeftArm  -12.1078 27.0393 -25.4646
LeftForeArm  25.2495 -27.2781 -4.51188
LeftHand  -0.244104 0.0205437 5.32207
RightShoulder  5.38769 8.50935 38.7709
RightArm  -1.0155 -13.8814 28.4997
RightForeArm  -0.20383 32.9082 7.30485
RightHand  -0.870826 0.450087 -17.3322
LeftUpLeg  -2.46542 7.09794 8.66945
LeftLeg  -0.532566 8.07761 -3.61816
LeftFoot  5.01222 0.76011 -5.49246
LeftToes  4.18335e-011 1.59304e-011 3.38507e-012
2176
root  5.32444 40.8883 -5.75014 -4.12366 -86.3389 1.77606
RightUpLeg  -1.25955 -9.03207 -4.83377
RightLeg  4.41482 -5.21358 4.83648
RightFoot  0.378789 0.223366 -2.14958
RightToes  -4.65663e-010 0 -3.6325e-017
Spine  2.0439 -0.687619 9.07541
Spine1  11.6341 -0.225333 -1.60688
HEad  36.1111 -0.620485 -3.12323
LeftShoulder1  7.17858 -9.92647 -46.6088
LeftArm  -12.0548 26.6359 -25.2669
LeftForeArm  25.0827 -27.7147 -4.61791
LeftHand  -0.244104 0.0205437 5.32207
RightShoulder  5.46238 8.55007 39.2182
RightArm  0.167667 -14.5279 28.5918
RightForeArm  -0.205134 30.8605 6.76982
RightHand  -0.911312 0.692857 -17.4249
LeftUpLeg  -1.51898 6.97703 8.67022
LeftLeg  -0.858569 8.48364 -3.31136
LeftFoot  5.37203 0.54905 -3.95411
LeftToes  4.18335e-011 1.59304e-011 3.38507e-012
2177
root  5.11271 40.9172 -5.63164 -5.61743 -86.7083 3.12836
RightUpLeg  -0.844433 -8.83819 -4.91927
RightLeg  4.43712 -4.94078 4.48611
RightFoot  0.18728 0.201441 -1.98087
RightToes  -4.65663e-010 0 -3.6325e-017
Spine  1.47142 -0.590555 7.87871
Spine1  11.7801 -0.375833 -0.840191
HEad  33.0092 -0.651868 -3.42273
LeftShoulder1  7.1722 -9.90569 -46.6401
LeftArm  -11.829 26.106 -25.0341
LeftForeArm  24.9929 -27.8398 -4.65083
LeftHand  -0.244104 0.0205437 5.32207
RightShoulder  5.53271 8.57352 39.6884
RightArm  1.28413 -15.3737 29.172
RightForeArm  -0.97558 27.8767 6.06334
RightHand  -0.990292 1.15416 -17.6169
LeftUpLeg  -0.845133 7.03754 8.64456
LeftLeg  -0.943929 8.80425 -3.43338
LeftFoot  4.93848 0.575241 -4.23563
LeftToes  4.18335e-011 1.59304e-011 3.38507e-012
2178
root  4.91963 40.9265 -5.50101 -8.49902 -87.0945 6.13074
RightUpLeg  -0.885115 -8.68835 -5.04191
RightLeg  4.75188 -4.70378 4.10444
RightFoot  -0.16691 0.169339 -1.74154
RightToes  -4.65663e-010 0 -3.6325e-017
Spine  0.968528 -0.504332 7.10248
Spine1  11.579 -0.357677 -0.643865
HEad  28.0781 -0.693983 -3.83234
LeftShoulder1  7.1428 -9.88588 -46.5147
LeftArm  -11.3301 25.6745 -24.4834
LeftForeArm  25.3729 -28.1081 -4.69042
LeftHand  -0.244104 0.0205437 5.32207
RightShoulder  5.61826 8.64276 40.1085
RightArm  2.40757 -16.4759 30.1252
RightForeArm  -2.28889 24.2555 5.3595
RightHand  -1.13087 1.95707 -17.9411
LeftUpLeg  -0.500126 7.24785 8.64643
LeftLeg  -0.884802 9.0223 -3.78336
LeftFoot  4.27832 0.647168 -4.90493
LeftToes  4.18335e-011 1.59304e-011 3.38507e-012
